<svg xmlns="http://www.w3.org/2000/svg" width="32" height="32" fill="none" viewBox="0 0 32 32" id="technologist">
  <path fill="url(#paint0_radial_3_1253)" d="M8.32886 30.0194C8.3316 29.9655 8.33301 29.9111 8.33301 29.8565C8.33301 28.1236 6.92816 26.7188 5.19525 26.7188C3.46234 26.7188 2.05756 28.1236 2.05756 29.8565C2.05756 29.9111 2.05896 29.9655 2.06171 30.0194H8.32886Z"></path>
  <path fill="url(#paint1_radial_3_1253)" d="M8.32886 30.0194C8.3316 29.9655 8.33301 29.9111 8.33301 29.8565C8.33301 28.1236 6.92816 26.7188 5.19525 26.7188C3.46234 26.7188 2.05756 28.1236 2.05756 29.8565C2.05756 29.9111 2.05896 29.9655 2.06171 30.0194H8.32886Z"></path>
  <path fill="url(#paint2_radial_3_1253)" d="M8.32886 30.0194C8.3316 29.9655 8.33301 29.9111 8.33301 29.8565C8.33301 28.1236 6.92816 26.7188 5.19525 26.7188C3.46234 26.7188 2.05756 28.1236 2.05756 29.8565C2.05756 29.9111 2.05896 29.9655 2.06171 30.0194H8.32886Z"></path>
  <path fill="#FFD2B6" d="M29.9383 30.0194C29.9411 29.9655 29.9425 29.9111 29.9425 29.8565C29.9425 28.1236 28.5377 26.7188 26.8048 26.7188C25.0719 26.7188 23.6671 28.1236 23.6671 29.8565C23.6671 29.9111 23.6685 29.9655 23.6712 30.0194H29.9383Z"></path>
  <path fill="url(#paint3_radial_3_1253)" d="M29.9383 30.0194C29.9411 29.9655 29.9425 29.9111 29.9425 29.8565C29.9425 28.1236 28.5377 26.7188 26.8048 26.7188C25.0719 26.7188 23.6671 28.1236 23.6671 29.8565C23.6671 29.9111 23.6685 29.9655 23.6712 30.0194H29.9383Z"></path>
  <path fill="url(#paint4_linear_3_1253)" d="M29.9383 30.0194C29.9411 29.9655 29.9425 29.9111 29.9425 29.8565C29.9425 28.1236 28.5377 26.7188 26.8048 26.7188C25.0719 26.7188 23.6671 28.1236 23.6671 29.8565C23.6671 29.9111 23.6685 29.9655 23.6712 30.0194H29.9383Z"></path>
  <path fill="url(#paint5_linear_3_1253)" d="M16.0001 15.5195C9.93006 15.5195 5.00006 20.4395 5.00006 26.5195V30.0195H27.0001V26.5195C27.0001 20.4395 22.0701 15.5195 16.0001 15.5195Z"></path>
  <path fill="url(#paint6_linear_3_1253)" d="M8.98012 18.0195C6.54012 20.0495 5.00012 23.1095 5.01012 26.5195L5.03012 30.0195L9.03012 29.9995L8.98012 18.0195Z"></path>
  <path fill="url(#paint7_linear_3_1253)" d="M23.0001 18.0295V30.0095H27.0001V26.5095C27.0001 23.0995 25.4401 20.0495 23.0001 18.0295Z"></path>
  <path fill="url(#paint8_radial_3_1253)" d="M20.8567 12.0776C21.1919 12.0667 21.5059 11.9531 21.7613 11.769V12.7C21.7613 13.5932 21.2292 14.3888 20.4204 14.719C20.5907 14.3564 20.7077 13.9612 20.7663 13.539L20.8567 12.0776Z"></path>
  <path fill="url(#paint9_radial_3_1253)" d="M11.1341 12.0776C10.7989 12.0667 10.485 11.9531 10.2296 11.769V12.7C10.2296 13.5932 10.7617 14.3888 11.5705 14.719C11.4002 14.3564 11.2831 13.9612 11.2246 13.539L11.1341 12.0776Z"></path>
  <g filter="url(#filter0_ii_3_1253)">
    <path fill="url(#paint10_radial_3_1253)" d="M11.1706 13.5928C11.4279 15.5451 13.0893 16.9987 15.0563 16.9987H16.9429C18.9098 16.9987 20.5713 15.5451 20.8285 13.5928C20.9465 11.7091 21.0652 9.83294 21.1527 7.95024C21.1421 7.18324 20.5374 6.55034 19.7737 6.51816H18.3735C17.4188 6.51816 16.5543 5.95498 16.1618 5.07534C16.0611 4.82325 15.8171 4.65698 15.5466 4.65698H14.2737C12.428 4.65698 10.9323 6.16952 10.9323 8.03605C10.9323 9.89677 11.0485 11.7274 11.1706 13.5928Z"></path>
  </g>
  <path fill="url(#paint11_linear_3_1253)" d="M11.1706 13.5928C11.4279 15.5451 13.0893 16.9987 15.0563 16.9987H16.9429C18.9098 16.9987 20.5713 15.5451 20.8285 13.5928C20.9465 11.7091 21.0652 9.83294 21.1527 7.95024C21.1421 7.18324 20.5374 6.55034 19.7737 6.51816H18.3735C17.4188 6.51816 16.5543 5.95498 16.1618 5.07534C16.0611 4.82325 15.8171 4.65698 15.5466 4.65698H14.2737C12.428 4.65698 10.9323 6.16952 10.9323 8.03605C10.9323 9.89677 11.0485 11.7274 11.1706 13.5928Z"></path>
  <path fill="url(#paint12_radial_3_1253)" d="M11.1706 13.5928C11.4279 15.5451 13.0893 16.9987 15.0563 16.9987H16.9429C18.9098 16.9987 20.5713 15.5451 20.8285 13.5928C20.9465 11.7091 21.0652 9.83294 21.1527 7.95024C21.1421 7.18324 20.5374 6.55034 19.7737 6.51816H18.3735C17.4188 6.51816 16.5543 5.95498 16.1618 5.07534C16.0611 4.82325 15.8171 4.65698 15.5466 4.65698H14.2737C12.428 4.65698 10.9323 6.16952 10.9323 8.03605C10.9323 9.89677 11.0485 11.7274 11.1706 13.5928Z"></path>
  <path fill="url(#paint13_radial_3_1253)" d="M11.1706 13.5928C11.4279 15.5451 13.0893 16.9987 15.0563 16.9987H16.9429C18.9098 16.9987 20.5713 15.5451 20.8285 13.5928C20.9465 11.7091 21.0652 9.83294 21.1527 7.95024C21.1421 7.18324 20.5374 6.55034 19.7737 6.51816H18.3735C17.4188 6.51816 16.5543 5.95498 16.1618 5.07534C16.0611 4.82325 15.8171 4.65698 15.5466 4.65698H14.2737C12.428 4.65698 10.9323 6.16952 10.9323 8.03605C10.9323 9.89677 11.0485 11.7274 11.1706 13.5928Z"></path>
  <path fill="url(#paint14_radial_3_1253)" d="M11.1706 13.5928C11.4279 15.5451 13.0893 16.9987 15.0563 16.9987H16.9429C18.9098 16.9987 20.5713 15.5451 20.8285 13.5928C20.9465 11.7091 21.0652 9.83294 21.1527 7.95024C21.1421 7.18324 20.5374 6.55034 19.7737 6.51816H18.3735C17.4188 6.51816 16.5543 5.95498 16.1618 5.07534C16.0611 4.82325 15.8171 4.65698 15.5466 4.65698H14.2737C12.428 4.65698 10.9323 6.16952 10.9323 8.03605C10.9323 9.89677 11.0485 11.7274 11.1706 13.5928Z"></path>
  <path fill="url(#paint15_radial_3_1253)" d="M11.1706 13.5928C11.4279 15.5451 13.0893 16.9987 15.0563 16.9987H16.9429C18.9098 16.9987 20.5713 15.5451 20.8285 13.5928C20.9465 11.7091 21.0652 9.83294 21.1527 7.95024C21.1421 7.18324 20.5374 6.55034 19.7737 6.51816H18.3735C17.4188 6.51816 16.5543 5.95498 16.1618 5.07534C16.0611 4.82325 15.8171 4.65698 15.5466 4.65698H14.2737C12.428 4.65698 10.9323 6.16952 10.9323 8.03605C10.9323 9.89677 11.0485 11.7274 11.1706 13.5928Z"></path>
  <path fill="url(#paint16_radial_3_1253)" d="M11.1706 13.5928C11.4279 15.5451 13.0893 16.9987 15.0563 16.9987H16.9429C18.9098 16.9987 20.5713 15.5451 20.8285 13.5928C20.9465 11.7091 21.0652 9.83294 21.1527 7.95024C21.1421 7.18324 20.5374 6.55034 19.7737 6.51816H18.3735C17.4188 6.51816 16.5543 5.95498 16.1618 5.07534C16.0611 4.82325 15.8171 4.65698 15.5466 4.65698H14.2737C12.428 4.65698 10.9323 6.16952 10.9323 8.03605C10.9323 9.89677 11.0485 11.7274 11.1706 13.5928Z"></path>
  <path fill="url(#paint17_radial_3_1253)" d="M11.1706 13.5928C11.4279 15.5451 13.0893 16.9987 15.0563 16.9987H16.9429C18.9098 16.9987 20.5713 15.5451 20.8285 13.5928C20.9465 11.7091 21.0652 9.83294 21.1527 7.95024C21.1421 7.18324 20.5374 6.55034 19.7737 6.51816H18.3735C17.4188 6.51816 16.5543 5.95498 16.1618 5.07534C16.0611 4.82325 15.8171 4.65698 15.5466 4.65698H14.2737C12.428 4.65698 10.9323 6.16952 10.9323 8.03605C10.9323 9.89677 11.0485 11.7274 11.1706 13.5928Z"></path>
  <g filter="url(#filter1_f_3_1253)">
    <path fill="#D69790" d="M15.5941 10.3037L15.0033 12.1421C14.9023 12.5202 15.1446 12.8983 15.4877 12.8983H16.2194C16.5625 12.8983 16.8047 12.5144 16.7038 12.1421L16.2093 10.3037C16.1033 9.89648 15.7051 9.89648 15.5941 10.3037Z"></path>
  </g>
  <g filter="url(#filter2_f_3_1253)">
    <path fill="#F6BFAB" d="M15.6131 10.113L15.0816 11.9514C14.9732 12.3295 15.2335 12.7077 15.6023 12.7077H16.3886C16.7574 12.7077 17.0177 12.3237 16.9093 11.9514L16.3778 10.113C16.2639 9.70581 15.7324 9.70581 15.6131 10.113Z"></path>
    <path fill="url(#paint18_linear_3_1253)" d="M15.6131 10.113L15.0816 11.9514C14.9732 12.3295 15.2335 12.7077 15.6023 12.7077H16.3886C16.7574 12.7077 17.0177 12.3237 16.9093 11.9514L16.3778 10.113C16.2639 9.70581 15.7324 9.70581 15.6131 10.113Z"></path>
    <path fill="url(#paint19_radial_3_1253)" d="M15.6131 10.113L15.0816 11.9514C14.9732 12.3295 15.2335 12.7077 15.6023 12.7077H16.3886C16.7574 12.7077 17.0177 12.3237 16.9093 11.9514L16.3778 10.113C16.2639 9.70581 15.7324 9.70581 15.6131 10.113Z"></path>
    <path fill="url(#paint20_linear_3_1253)" d="M15.6131 10.113L15.0816 11.9514C14.9732 12.3295 15.2335 12.7077 15.6023 12.7077H16.3886C16.7574 12.7077 17.0177 12.3237 16.9093 11.9514L16.3778 10.113C16.2639 9.70581 15.7324 9.70581 15.6131 10.113Z"></path>
    <path fill="url(#paint21_radial_3_1253)" d="M15.6131 10.113L15.0816 11.9514C14.9732 12.3295 15.2335 12.7077 15.6023 12.7077H16.3886C16.7574 12.7077 17.0177 12.3237 16.9093 11.9514L16.3778 10.113C16.2639 9.70581 15.7324 9.70581 15.6131 10.113Z"></path>
    <path fill="url(#paint22_linear_3_1253)" d="M15.6131 10.113L15.0816 11.9514C14.9732 12.3295 15.2335 12.7077 15.6023 12.7077H16.3886C16.7574 12.7077 17.0177 12.3237 16.9093 11.9514L16.3778 10.113C16.2639 9.70581 15.7324 9.70581 15.6131 10.113Z"></path>
  </g>
  <g filter="url(#filter3_f_3_1253)">
    <path stroke="url(#paint23_linear_3_1253)" stroke-width=".15" d="M14.6446 13.3294L14.6446 13.3294C15.0344 13.5326 15.4995 13.6494 15.9954 13.6494C16.4962 13.6494 16.9563 13.5327 17.3461 13.3294L17.3468 13.3291L17.3468 13.3291C17.4477 13.2778 17.5539 13.3076 17.6175 13.3737C17.6821 13.4408 17.706 13.549 17.6412 13.6464M14.6446 13.3294L17.5787 13.6049M14.6446 13.3294L14.6439 13.3291C14.542 13.2772 14.4358 13.3098 14.3729 13.376C14.3096 13.4426 14.2839 13.5509 14.3499 13.6469M14.6446 13.3294L14.412 13.6049M17.6412 13.6464C17.6412 13.6464 17.6412 13.6465 17.6411 13.6465L17.5787 13.6049M17.6412 13.6464C17.6413 13.6463 17.6413 13.6463 17.6413 13.6462L17.5787 13.6049M17.6412 13.6464C17.2928 14.1743 16.6861 14.5259 15.9954 14.5259C15.3049 14.5259 14.6983 14.1745 14.3499 13.6469M17.5787 13.6049C17.2438 14.1125 16.6602 14.4509 15.9954 14.4509C15.3306 14.4509 14.747 14.1125 14.412 13.6049M14.3499 13.6469C14.35 13.6471 14.3502 13.6474 14.3504 13.6477L14.412 13.6049M14.3499 13.6469C14.3497 13.6467 14.3496 13.6464 14.3494 13.6462L14.412 13.6049"></path>
  </g>
  <path fill="url(#paint24_radial_3_1253)" d="M15.9954 13.7244C15.4879 13.7244 15.0109 13.6049 14.6099 13.3959C14.4729 13.3262 14.3257 13.4805 14.412 13.6049C14.747 14.1125 15.3306 14.4509 15.9954 14.4509C16.6602 14.4509 17.2438 14.1125 17.5787 13.6049C17.665 13.4755 17.5178 13.3262 17.3808 13.3959C16.9799 13.6049 16.5079 13.7244 15.9954 13.7244Z"></path>
  <g filter="url(#filter4_ii_3_1253)">
    <path fill="url(#paint25_linear_3_1253)" d="M20.8502 4.18491C21.3647 4.36191 21.8261 4.72127 22.1178 5.23618C22.5845 6.05681 22.5156 7.03835 22.0117 7.76244C21.8367 8.0199 21.7412 8.32562 21.7412 8.63671V9.82475C21.5542 9.69445 21.3074 9.59785 21.074 9.55657L21.1525 7.95017C21.1419 7.18317 20.5373 6.55027 19.7735 6.51808H18.3733C17.4187 6.51808 16.5541 5.9549 16.1617 5.07527C16.0609 4.82318 15.8169 4.65691 15.5464 4.65691H14.2735C12.4278 4.65691 10.9321 6.16945 10.9321 8.03599L10.9628 9.57333C10.7088 9.61065 10.4435 9.69555 10.2427 9.837V8.63671C10.2427 8.32562 10.1472 8.0199 9.97216 7.76244C9.49482 7.05981 9.40996 6.11581 9.82896 5.31664C10.1207 4.76418 10.5927 4.378 11.1284 4.19028C11.7012 3.98646 12.1891 3.60028 12.5127 3.08001C12.9264 2.42028 13.653 1.98047 14.4857 1.98047C14.8092 1.98047 15.1168 2.0502 15.4032 2.1682C15.7851 2.33447 16.2147 2.33447 16.5966 2.1682C16.8777 2.0502 17.1853 1.98047 17.5088 1.98047C18.3521 1.98047 19.0893 2.43638 19.4977 3.11219C19.8054 3.62173 20.288 3.99182 20.8502 4.18491Z"></path>
    <path fill="url(#paint26_radial_3_1253)" d="M20.8502 4.18491C21.3647 4.36191 21.8261 4.72127 22.1178 5.23618C22.5845 6.05681 22.5156 7.03835 22.0117 7.76244C21.8367 8.0199 21.7412 8.32562 21.7412 8.63671V9.82475C21.5542 9.69445 21.3074 9.59785 21.074 9.55657L21.1525 7.95017C21.1419 7.18317 20.5373 6.55027 19.7735 6.51808H18.3733C17.4187 6.51808 16.5541 5.9549 16.1617 5.07527C16.0609 4.82318 15.8169 4.65691 15.5464 4.65691H14.2735C12.4278 4.65691 10.9321 6.16945 10.9321 8.03599L10.9628 9.57333C10.7088 9.61065 10.4435 9.69555 10.2427 9.837V8.63671C10.2427 8.32562 10.1472 8.0199 9.97216 7.76244C9.49482 7.05981 9.40996 6.11581 9.82896 5.31664C10.1207 4.76418 10.5927 4.378 11.1284 4.19028C11.7012 3.98646 12.1891 3.60028 12.5127 3.08001C12.9264 2.42028 13.653 1.98047 14.4857 1.98047C14.8092 1.98047 15.1168 2.0502 15.4032 2.1682C15.7851 2.33447 16.2147 2.33447 16.5966 2.1682C16.8777 2.0502 17.1853 1.98047 17.5088 1.98047C18.3521 1.98047 19.0893 2.43638 19.4977 3.11219C19.8054 3.62173 20.288 3.99182 20.8502 4.18491Z"></path>
    <path fill="url(#paint27_radial_3_1253)" d="M20.8502 4.18491C21.3647 4.36191 21.8261 4.72127 22.1178 5.23618C22.5845 6.05681 22.5156 7.03835 22.0117 7.76244C21.8367 8.0199 21.7412 8.32562 21.7412 8.63671V9.82475C21.5542 9.69445 21.3074 9.59785 21.074 9.55657L21.1525 7.95017C21.1419 7.18317 20.5373 6.55027 19.7735 6.51808H18.3733C17.4187 6.51808 16.5541 5.9549 16.1617 5.07527C16.0609 4.82318 15.8169 4.65691 15.5464 4.65691H14.2735C12.4278 4.65691 10.9321 6.16945 10.9321 8.03599L10.9628 9.57333C10.7088 9.61065 10.4435 9.69555 10.2427 9.837V8.63671C10.2427 8.32562 10.1472 8.0199 9.97216 7.76244C9.49482 7.05981 9.40996 6.11581 9.82896 5.31664C10.1207 4.76418 10.5927 4.378 11.1284 4.19028C11.7012 3.98646 12.1891 3.60028 12.5127 3.08001C12.9264 2.42028 13.653 1.98047 14.4857 1.98047C14.8092 1.98047 15.1168 2.0502 15.4032 2.1682C15.7851 2.33447 16.2147 2.33447 16.5966 2.1682C16.8777 2.0502 17.1853 1.98047 17.5088 1.98047C18.3521 1.98047 19.0893 2.43638 19.4977 3.11219C19.8054 3.62173 20.288 3.99182 20.8502 4.18491Z"></path>
    <path fill="url(#paint28_radial_3_1253)" d="M20.8502 4.18491C21.3647 4.36191 21.8261 4.72127 22.1178 5.23618C22.5845 6.05681 22.5156 7.03835 22.0117 7.76244C21.8367 8.0199 21.7412 8.32562 21.7412 8.63671V9.82475C21.5542 9.69445 21.3074 9.59785 21.074 9.55657L21.1525 7.95017C21.1419 7.18317 20.5373 6.55027 19.7735 6.51808H18.3733C17.4187 6.51808 16.5541 5.9549 16.1617 5.07527C16.0609 4.82318 15.8169 4.65691 15.5464 4.65691H14.2735C12.4278 4.65691 10.9321 6.16945 10.9321 8.03599L10.9628 9.57333C10.7088 9.61065 10.4435 9.69555 10.2427 9.837V8.63671C10.2427 8.32562 10.1472 8.0199 9.97216 7.76244C9.49482 7.05981 9.40996 6.11581 9.82896 5.31664C10.1207 4.76418 10.5927 4.378 11.1284 4.19028C11.7012 3.98646 12.1891 3.60028 12.5127 3.08001C12.9264 2.42028 13.653 1.98047 14.4857 1.98047C14.8092 1.98047 15.1168 2.0502 15.4032 2.1682C15.7851 2.33447 16.2147 2.33447 16.5966 2.1682C16.8777 2.0502 17.1853 1.98047 17.5088 1.98047C18.3521 1.98047 19.0893 2.43638 19.4977 3.11219C19.8054 3.62173 20.288 3.99182 20.8502 4.18491Z"></path>
    <path fill="url(#paint29_radial_3_1253)" d="M20.8502 4.18491C21.3647 4.36191 21.8261 4.72127 22.1178 5.23618C22.5845 6.05681 22.5156 7.03835 22.0117 7.76244C21.8367 8.0199 21.7412 8.32562 21.7412 8.63671V9.82475C21.5542 9.69445 21.3074 9.59785 21.074 9.55657L21.1525 7.95017C21.1419 7.18317 20.5373 6.55027 19.7735 6.51808H18.3733C17.4187 6.51808 16.5541 5.9549 16.1617 5.07527C16.0609 4.82318 15.8169 4.65691 15.5464 4.65691H14.2735C12.4278 4.65691 10.9321 6.16945 10.9321 8.03599L10.9628 9.57333C10.7088 9.61065 10.4435 9.69555 10.2427 9.837V8.63671C10.2427 8.32562 10.1472 8.0199 9.97216 7.76244C9.49482 7.05981 9.40996 6.11581 9.82896 5.31664C10.1207 4.76418 10.5927 4.378 11.1284 4.19028C11.7012 3.98646 12.1891 3.60028 12.5127 3.08001C12.9264 2.42028 13.653 1.98047 14.4857 1.98047C14.8092 1.98047 15.1168 2.0502 15.4032 2.1682C15.7851 2.33447 16.2147 2.33447 16.5966 2.1682C16.8777 2.0502 17.1853 1.98047 17.5088 1.98047C18.3521 1.98047 19.0893 2.43638 19.4977 3.11219C19.8054 3.62173 20.288 3.99182 20.8502 4.18491Z"></path>
  </g>
  <g filter="url(#filter5_i_3_1253)">
    <path fill="#202020" d="M19.7282 7.84798C19.553 7.69539 19.3493 7.53371 19.0407 7.43656C18.7365 7.34079 18.3554 7.31506 17.8282 7.37955C17.6762 7.39815 17.568 7.53648 17.5866 7.6885C17.6052 7.84053 17.7435 7.9487 17.8956 7.9301C18.3767 7.87123 18.6715 7.90182 18.8741 7.96562C19.0724 8.02804 19.2066 8.12917 19.3639 8.26622C19.4794 8.36682 19.6546 8.35474 19.7552 8.23924C19.8558 8.12375 19.8437 7.94857 19.7282 7.84798Z"></path>
  </g>
  <g filter="url(#filter6_i_3_1253)">
    <path fill="#202020" d="M12.5847 7.73884C12.6748 7.6849 12.8045 7.6159 12.9682 7.55151C13.2957 7.42277 13.7637 7.31095 14.3236 7.37946C14.4756 7.39806 14.5838 7.53638 14.5652 7.68841C14.5466 7.84044 14.4083 7.9486 14.2563 7.93C13.8079 7.87515 13.4337 7.96447 13.1712 8.0677C13.0399 8.1193 12.9376 8.174 12.8695 8.21476C12.8356 8.2351 12.8103 8.25184 12.7944 8.2628C12.7865 8.26828 12.781 8.27229 12.7779 8.27457L12.7751 8.27662C12.6542 8.3698 12.4806 8.34785 12.3869 8.22726C12.2928 8.10636 12.3146 7.93213 12.4355 7.83809L12.5847 7.73884Z"></path>
  </g>
  <g filter="url(#filter7_if_3_1253)">
    <path fill="#23181C" d="M16.2279 5.21207C16.2046 5.16737 16.1825 5.12176 16.1618 5.07526C16.061 4.82317 15.817 4.6569 15.5465 4.6569H14.2736C12.4279 4.6569 10.9322 6.16943 10.9322 8.03597V8.31113C10.5922 8.05239 10.1646 7.50659 10.1646 6.62333C10.1646 5.5515 10.9463 5.00972 11.445 4.66413C11.5858 4.56657 11.704 4.48464 11.7757 4.41084C11.8061 4.37949 11.8393 4.34432 11.8754 4.30607C12.2249 3.93535 12.8477 3.27481 13.9352 2.98613C14.4666 2.84506 15.0051 2.81054 15.4429 2.8211C15.9156 2.83251 16.249 3.24079 16.249 3.71363V5.19862L16.2279 5.21207Z"></path>
    <path fill="url(#paint30_radial_3_1253)" d="M16.2279 5.21207C16.2046 5.16737 16.1825 5.12176 16.1618 5.07526C16.061 4.82317 15.817 4.6569 15.5465 4.6569H14.2736C12.4279 4.6569 10.9322 6.16943 10.9322 8.03597V8.31113C10.5922 8.05239 10.1646 7.50659 10.1646 6.62333C10.1646 5.5515 10.9463 5.00972 11.445 4.66413C11.5858 4.56657 11.704 4.48464 11.7757 4.41084C11.8061 4.37949 11.8393 4.34432 11.8754 4.30607C12.2249 3.93535 12.8477 3.27481 13.9352 2.98613C14.4666 2.84506 15.0051 2.81054 15.4429 2.8211C15.9156 2.83251 16.249 3.24079 16.249 3.71363V5.19862L16.2279 5.21207Z"></path>
    <path fill="url(#paint31_radial_3_1253)" d="M16.2279 5.21207C16.2046 5.16737 16.1825 5.12176 16.1618 5.07526C16.061 4.82317 15.817 4.6569 15.5465 4.6569H14.2736C12.4279 4.6569 10.9322 6.16943 10.9322 8.03597V8.31113C10.5922 8.05239 10.1646 7.50659 10.1646 6.62333C10.1646 5.5515 10.9463 5.00972 11.445 4.66413C11.5858 4.56657 11.704 4.48464 11.7757 4.41084C11.8061 4.37949 11.8393 4.34432 11.8754 4.30607C12.2249 3.93535 12.8477 3.27481 13.9352 2.98613C14.4666 2.84506 15.0051 2.81054 15.4429 2.8211C15.9156 2.83251 16.249 3.24079 16.249 3.71363V5.19862L16.2279 5.21207Z"></path>
  </g>
  <g filter="url(#filter8_f_3_1253)">
    <path fill="#1F151B" d="M21.2082 8.47879L21.179 7.8476C21.1684 7.08414 20.5375 6.45416 19.7738 6.42212H18.3736C17.4847 6.42212 16.674 5.93617 16.2497 5.16247C16.2497 5.16247 16.1911 5.02678 16.1297 4.79435C15.8734 3.82456 16.8006 3.08201 17.7853 3.273C18.7587 3.46178 19.8675 3.7899 20.6874 4.32462C22.4319 5.46248 22.1265 7.51312 21.2082 8.47879Z"></path>
    <path fill="url(#paint32_radial_3_1253)" d="M21.2082 8.47879L21.179 7.8476C21.1684 7.08414 20.5375 6.45416 19.7738 6.42212H18.3736C17.4847 6.42212 16.674 5.93617 16.2497 5.16247C16.2497 5.16247 16.1911 5.02678 16.1297 4.79435C15.8734 3.82456 16.8006 3.08201 17.7853 3.273C18.7587 3.46178 19.8675 3.7899 20.6874 4.32462C22.4319 5.46248 22.1265 7.51312 21.2082 8.47879Z"></path>
    <path fill="url(#paint33_radial_3_1253)" d="M21.2082 8.47879L21.179 7.8476C21.1684 7.08414 20.5375 6.45416 19.7738 6.42212H18.3736C17.4847 6.42212 16.674 5.93617 16.2497 5.16247C16.2497 5.16247 16.1911 5.02678 16.1297 4.79435C15.8734 3.82456 16.8006 3.08201 17.7853 3.273C18.7587 3.46178 19.8675 3.7899 20.6874 4.32462C22.4319 5.46248 22.1265 7.51312 21.2082 8.47879Z"></path>
    <path fill="url(#paint34_radial_3_1253)" d="M21.2082 8.47879L21.179 7.8476C21.1684 7.08414 20.5375 6.45416 19.7738 6.42212H18.3736C17.4847 6.42212 16.674 5.93617 16.2497 5.16247C16.2497 5.16247 16.1911 5.02678 16.1297 4.79435C15.8734 3.82456 16.8006 3.08201 17.7853 3.273C18.7587 3.46178 19.8675 3.7899 20.6874 4.32462C22.4319 5.46248 22.1265 7.51312 21.2082 8.47879Z"></path>
  </g>
  <path fill="#fff" d="M18.3864 9.1626C19.0395 9.1626 19.5912 9.61288 19.7413 10.2214C19.786 10.3958 19.6521 10.5621 19.4736 10.5621H17.2425C17.1005 10.5621 16.9869 10.4323 17.0153 10.2903C17.1411 9.64939 17.7049 9.1626 18.3864 9.1626Z"></path>
  <path fill="url(#paint35_radial_3_1253)" d="M18.1795 9.43433C18.6744 9.43433 19.072 9.83593 19.072 10.3268C19.072 10.4079 19.0598 10.489 19.0395 10.5621H17.3155C17.2952 10.485 17.283 10.4079 17.283 10.3268C17.283 9.83593 17.6846 9.43433 18.1795 9.43433Z"></path>
  <path fill="#000" d="M17.6684 10.3268C17.6684 10.0428 17.8956 9.81567 18.1795 9.81567C18.4635 9.81567 18.6907 10.0428 18.6907 10.3268C18.6907 10.412 18.6704 10.4931 18.6339 10.5621H17.7292C17.6887 10.4931 17.6684 10.412 17.6684 10.3268Z"></path>
  <g filter="url(#filter9_f_3_1253)">
    <path fill="#C7A7A3" d="M18.1138 9.623C18.1774 9.70805 18.0445 9.81172 17.8934 9.9247C17.7423 10.0377 17.6302 10.1172 17.5666 10.0322C17.503 9.94711 17.574 9.78658 17.7251 9.6736C17.8762 9.56062 18.0503 9.53796 18.1138 9.623Z"></path>
    <path fill="url(#paint36_radial_3_1253)" d="M18.1138 9.623C18.1774 9.70805 18.0445 9.81172 17.8934 9.9247C17.7423 10.0377 17.6302 10.1172 17.5666 10.0322C17.503 9.94711 17.574 9.78658 17.7251 9.6736C17.8762 9.56062 18.0503 9.53796 18.1138 9.623Z"></path>
  </g>
  <g filter="url(#filter10_f_3_1253)">
    <path fill="url(#paint37_linear_3_1253)" d="M18.9746 10.2093C18.9416 9.97857 18.8066 9.80468 18.7432 9.74658L18.4833 10.0318L18.6006 10.26L18.9746 10.2093Z"></path>
  </g>
  <path fill="#fff" d="M13.6045 9.1626C12.9514 9.1626 12.3997 9.6129 12.2496 10.2214C12.2049 10.3959 12.3388 10.5622 12.5173 10.5622H14.7485C14.8905 10.5622 15.0041 10.4324 14.9757 10.2904C14.85 9.64941 14.282 9.1626 13.6045 9.1626Z"></path>
  <path fill="url(#paint38_radial_3_1253)" d="M13.8114 9.43433C13.3165 9.43433 12.9189 9.83595 12.9189 10.3268C12.9189 10.408 12.9311 10.4891 12.9513 10.5621H14.6755C14.6958 10.485 14.7079 10.408 14.7079 10.3268C14.7039 9.83595 14.3063 9.43433 13.8114 9.43433Z"></path>
  <path fill="#000" d="M14.3225 10.3268C14.3225 10.0429 14.0954 9.81567 13.8114 9.81567C13.5274 9.81567 13.3002 10.0429 13.3002 10.3268C13.3002 10.412 13.3205 10.4932 13.357 10.5621H14.2617C14.2982 10.4932 14.3225 10.412 14.3225 10.3268Z"></path>
  <g filter="url(#filter11_f_3_1253)">
    <path fill="url(#paint39_linear_3_1253)" d="M14.6268 10.2221C14.6268 9.93373 14.3923 9.74145 14.3289 9.68335L14.0405 9.96225L14.218 10.3236L14.6268 10.2221Z"></path>
  </g>
  <g filter="url(#filter12_f_3_1253)">
    <ellipse cx="13.542" cy="9.816" fill="#C7A7A3" fill-opacity=".9" rx=".39" ry=".197" transform="rotate(-27.914 13.542 9.816)"></ellipse>
    <ellipse cx="13.542" cy="9.816" fill="url(#paint40_radial_3_1253)" rx=".39" ry=".197" transform="rotate(-27.914 13.542 9.816)"></ellipse>
  </g>
  <path fill="url(#paint41_linear_3_1253)" d="M20.9174 12.1686C20.9832 11.1044 21.0467 10.0415 21.102 8.97729C21.8576 9.1095 22.4318 9.7688 22.4318 10.5622C22.4318 11.4191 21.762 12.1196 20.9174 12.1686Z"></path>
  <path fill="url(#paint42_radial_3_1253)" d="M20.9174 12.1686C20.9832 11.1044 21.0467 10.0415 21.102 8.97729C21.8576 9.1095 22.4318 9.7688 22.4318 10.5622C22.4318 11.4191 21.762 12.1196 20.9174 12.1686Z"></path>
  <path fill="url(#paint43_radial_3_1253)" d="M20.9174 12.1686C20.9832 11.1044 21.0467 10.0415 21.102 8.97729C21.8576 9.1095 22.4318 9.7688 22.4318 10.5622C22.4318 11.4191 21.762 12.1196 20.9174 12.1686Z"></path>
  <path fill="url(#paint44_radial_3_1253)" d="M20.9174 12.1686C20.9832 11.1044 21.0467 10.0415 21.102 8.97729C21.8576 9.1095 22.4318 9.7688 22.4318 10.5622C22.4318 11.4191 21.762 12.1196 20.9174 12.1686Z"></path>
  <path fill="url(#paint45_linear_3_1253)" d="M10.9511 8.96851C10.1698 9.07868 9.55902 9.75058 9.55902 10.5623C9.55902 11.4214 10.2322 12.1232 11.0799 12.169C11.0153 11.1005 10.9718 10.0374 10.9511 8.96851Z"></path>
  <path fill="url(#paint46_radial_3_1253)" d="M10.9511 8.96851C10.1698 9.07868 9.55902 9.75058 9.55902 10.5623C9.55902 11.4214 10.2322 12.1232 11.0799 12.169C11.0153 11.1005 10.9718 10.0374 10.9511 8.96851Z"></path>
  <g filter="url(#filter13_f_3_1253)">
    <path fill="url(#paint47_radial_3_1253)" d="M10.9101 9.62915C10.4834 9.72481 10.1646 10.1059 10.1646 10.5614C10.1646 11.0462 10.5257 11.4466 10.9935 11.5085C10.9588 10.8817 10.9296 10.2561 10.9101 9.62915Z"></path>
  </g>
  <g filter="url(#filter14_f_3_1253)">
    <path fill="url(#paint48_linear_3_1253)" d="M21.0013 11.5247C21.0398 10.8901 21.0771 10.2559 21.1119 9.62134C21.5832 9.68013 21.9478 10.0821 21.9478 10.5693C21.9478 11.094 21.5248 11.5199 21.0013 11.5247Z"></path>
  </g>
  <g filter="url(#filter15_f_3_1253)">
    <path stroke="#353535" stroke-linecap="round" stroke-width=".25" d="M12.6223 8.0186C12.8793 7.83423 13.5198 7.5099 14.2774 7.63728"></path>
  </g>
  <g filter="url(#filter16_f_3_1253)">
    <path stroke="#353535" stroke-linecap="round" stroke-width=".25" d="M19.5565 7.97246C19.2995 7.78808 18.6589 7.46376 17.9013 7.59114"></path>
  </g>
  <g filter="url(#filter17_i_3_1253)">
    <path fill="url(#paint49_linear_3_1253)" d="M26.0301 16.0195H5.97006C5.44006 16.0195 5.00006 16.4495 5.00006 16.9895V30.0195H27.0001V16.9895C27.0001 16.4495 26.5601 16.0195 26.0301 16.0195Z"></path>
    <path fill="url(#paint50_radial_3_1253)" d="M26.0301 16.0195H5.97006C5.44006 16.0195 5.00006 16.4495 5.00006 16.9895V30.0195H27.0001V16.9895C27.0001 16.4495 26.5601 16.0195 26.0301 16.0195Z"></path>
    <path fill="url(#paint51_linear_3_1253)" d="M26.0301 16.0195H5.97006C5.44006 16.0195 5.00006 16.4495 5.00006 16.9895V30.0195H27.0001V16.9895C27.0001 16.4495 26.5601 16.0195 26.0301 16.0195Z"></path>
    <path fill="url(#paint52_linear_3_1253)" d="M26.0301 16.0195H5.97006C5.44006 16.0195 5.00006 16.4495 5.00006 16.9895V30.0195H27.0001V16.9895C27.0001 16.4495 26.5601 16.0195 26.0301 16.0195Z"></path>
    <path fill="url(#paint53_linear_3_1253)" d="M26.0301 16.0195H5.97006C5.44006 16.0195 5.00006 16.4495 5.00006 16.9895V30.0195H27.0001V16.9895C27.0001 16.4495 26.5601 16.0195 26.0301 16.0195Z"></path>
    <path fill="url(#paint54_radial_3_1253)" d="M26.0301 16.0195H5.97006C5.44006 16.0195 5.00006 16.4495 5.00006 16.9895V30.0195H27.0001V16.9895C27.0001 16.4495 26.5601 16.0195 26.0301 16.0195Z"></path>
  </g>
  <path fill="url(#paint55_linear_3_1253)" d="M14.444 21.8909C14.444 21.7528 14.5559 21.6409 14.694 21.6409H17.3041C17.4421 21.6409 17.5541 21.7528 17.5541 21.8909V24.3066C17.5541 24.4447 17.4421 24.5566 17.3041 24.5566H14.694C14.5559 24.5566 14.444 24.4447 14.444 24.3066V21.8909Z"></path>
  <path fill="url(#paint56_linear_3_1253)" d="M14.444 21.8909C14.444 21.7528 14.5559 21.6409 14.694 21.6409H17.3041C17.4421 21.6409 17.5541 21.7528 17.5541 21.8909V24.3066C17.5541 24.4447 17.4421 24.5566 17.3041 24.5566H14.694C14.5559 24.5566 14.444 24.4447 14.444 24.3066V21.8909Z"></path>
  <path fill="url(#paint57_linear_3_1253)" d="M14.444 21.8909C14.444 21.7528 14.5559 21.6409 14.694 21.6409H17.3041C17.4421 21.6409 17.5541 21.7528 17.5541 21.8909V24.3066C17.5541 24.4447 17.4421 24.5566 17.3041 24.5566H14.694C14.5559 24.5566 14.444 24.4447 14.444 24.3066V21.8909Z"></path>
  <path fill="url(#paint58_linear_3_1253)" d="M14.444 21.8909C14.444 21.7528 14.5559 21.6409 14.694 21.6409H17.3041C17.4421 21.6409 17.5541 21.7528 17.5541 21.8909V24.3066C17.5541 24.4447 17.4421 24.5566 17.3041 24.5566H14.694C14.5559 24.5566 14.444 24.4447 14.444 24.3066V21.8909Z"></path>
  <path fill="url(#paint59_linear_3_1253)" d="M14.444 21.8909C14.444 21.7528 14.5559 21.6409 14.694 21.6409H17.3041C17.4421 21.6409 17.5541 21.7528 17.5541 21.8909V24.3066C17.5541 24.4447 17.4421 24.5566 17.3041 24.5566H14.694C14.5559 24.5566 14.444 24.4447 14.444 24.3066V21.8909Z"></path>
  <path fill="url(#paint60_radial_3_1253)" fill-opacity=".6" d="M14.444 21.8909C14.444 21.7528 14.5559 21.6409 14.694 21.6409H17.3041C17.4421 21.6409 17.5541 21.7528 17.5541 21.8909V24.3066C17.5541 24.4447 17.4421 24.5566 17.3041 24.5566H14.694C14.5559 24.5566 14.444 24.4447 14.444 24.3066V21.8909Z"></path>
  <defs>
    <radialGradient id="paint0_radial_3_1253" cx="0" cy="0" r="1" gradientTransform="rotate(-156.777 5.833 14.445)scale(2.6864 2.91777)" gradientUnits="userSpaceOnUse">
      <stop stop-color="#DFA49E"></stop>
      <stop offset="1" stop-color="#F4C0A9"></stop>
    </radialGradient>
    <radialGradient id="paint1_radial_3_1253" cx="0" cy="0" r="1" gradientTransform="rotate(177.157 2.332 14.994)scale(3.35044 4.79049)" gradientUnits="userSpaceOnUse">
      <stop offset=".764" stop-color="#FFD1B6" stop-opacity="0"></stop>
      <stop offset=".927" stop-color="#FFD1B6"></stop>
    </radialGradient>
    <radialGradient id="paint2_radial_3_1253" cx="0" cy="0" r="1" gradientTransform="rotate(142.141 -1.796 14.45)scale(2.29569 2.48045)" gradientUnits="userSpaceOnUse">
      <stop stop-color="#D5A58F"></stop>
      <stop offset="1" stop-color="#D5A58F" stop-opacity="0"></stop>
    </radialGradient>
    <radialGradient id="paint3_radial_3_1253" cx="0" cy="0" r="1" gradientTransform="matrix(5.64062 -3.71875 1.03844 1.57511 27.091 30.119)" gradientUnits="userSpaceOnUse">
      <stop offset=".127" stop-color="#FFE6CB"></stop>
      <stop offset="1" stop-color="#FFE6CB" stop-opacity="0"></stop>
    </radialGradient>
    <radialGradient id="paint8_radial_3_1253" cx="0" cy="0" r="1" gradientTransform="rotate(69.657 1.917 20.796)scale(2.15387 2.55864)" gradientUnits="userSpaceOnUse">
      <stop offset=".215" stop-color="#313131"></stop>
      <stop offset="1" stop-color="#1A161E"></stop>
    </radialGradient>
    <radialGradient id="paint9_radial_3_1253" cx="0" cy="0" r="1" gradientTransform="matrix(1.47646 .46403 -1.43156 4.55498 9.939 12.26)" gradientUnits="userSpaceOnUse">
      <stop stop-color="#564943"></stop>
      <stop offset=".746" stop-color="#1E191C"></stop>
    </radialGradient>
    <radialGradient id="paint10_radial_3_1253" cx="0" cy="0" r="1" gradientTransform="matrix(-5.22784 0 0 -9.248 18.803 10.828)" gradientUnits="userSpaceOnUse">
      <stop stop-color="#FFDCC0"></stop>
      <stop offset="1" stop-color="#D6A195"></stop>
    </radialGradient>
    <radialGradient id="paint12_radial_3_1253" cx="0" cy="0" r="1" gradientTransform="matrix(-.99815 12.76794 -10.57334 -.82659 17.577 4.914)" gradientUnits="userSpaceOnUse">
      <stop offset=".719" stop-color="#F7BDB2" stop-opacity="0"></stop>
      <stop offset=".946" stop-color="#CA868F"></stop>
    </radialGradient>
    <radialGradient id="paint13_radial_3_1253" cx="0" cy="0" r="1" gradientTransform="matrix(0 -1.14835 1.42108 0 18.443 9.515)" gradientUnits="userSpaceOnUse">
      <stop offset=".325" stop-color="#F6B8A8"></stop>
      <stop offset="1" stop-color="#F6B8A8" stop-opacity="0"></stop>
    </radialGradient>
    <radialGradient id="paint14_radial_3_1253" cx="0" cy="0" r="1" gradientTransform="matrix(.00393 -1.09427 1.19083 .00428 13.695 9.561)" gradientUnits="userSpaceOnUse">
      <stop offset=".378" stop-color="#D39991"></stop>
      <stop offset="1" stop-color="#D39991" stop-opacity="0"></stop>
    </radialGradient>
    <radialGradient id="paint15_radial_3_1253" cx="0" cy="0" r="1" gradientTransform="matrix(-8.49597 .5363 -1.37 -21.7029 19.428 11.816)" gradientUnits="userSpaceOnUse">
      <stop offset=".836" stop-color="#E6AD97" stop-opacity="0"></stop>
      <stop offset="1" stop-color="#E6AD97"></stop>
    </radialGradient>
    <radialGradient id="paint16_radial_3_1253" cx="0" cy="0" r="1" gradientTransform="matrix(3.0984 -3.27776 1.1999 1.13424 10.528 6.503)" gradientUnits="userSpaceOnUse">
      <stop offset=".428" stop-color="#9F6D5C"></stop>
      <stop offset="1" stop-color="#9F6D5C" stop-opacity="0"></stop>
    </radialGradient>
    <radialGradient id="paint17_radial_3_1253" cx="0" cy="0" r="1" gradientTransform="matrix(-1.74316 2.88295 -2.3801 -1.43912 18.423 5.849)" gradientUnits="userSpaceOnUse">
      <stop offset=".078" stop-color="#F6C3B0"></stop>
      <stop offset="1" stop-color="#F6C3B0" stop-opacity="0"></stop>
    </radialGradient>
    <radialGradient id="paint19_radial_3_1253" cx="0" cy="0" r="1" gradientTransform="matrix(0 .2441 -.76718 0 16.462 12.188)" gradientUnits="userSpaceOnUse">
      <stop stop-color="#FFDDC7"></stop>
      <stop offset="1" stop-color="#FFDDC7" stop-opacity="0"></stop>
    </radialGradient>
    <radialGradient id="paint21_radial_3_1253" cx="0" cy="0" r="1" gradientTransform="matrix(-1.52115 .69743 -1.12083 -2.4446 16.578 11.619)" gradientUnits="userSpaceOnUse">
      <stop offset=".714" stop-color="#D3968C" stop-opacity="0"></stop>
      <stop offset="1" stop-color="#D3968C"></stop>
    </radialGradient>
    <radialGradient id="paint24_radial_3_1253" cx="0" cy="0" r="1" gradientTransform="matrix(0 -.72074 2.8997 0 15.995 14.367)" gradientUnits="userSpaceOnUse">
      <stop stop-color="#88014E"></stop>
      <stop offset="1" stop-color="#86004D"></stop>
    </radialGradient>
    <radialGradient id="paint26_radial_3_1253" cx="0" cy="0" r="1" gradientTransform="matrix(0 -3.50132 8.85443 0 10.766 7.935)" gradientUnits="userSpaceOnUse">
      <stop offset=".536" stop-color="#3E3433"></stop>
      <stop offset="1" stop-color="#3E3433" stop-opacity="0"></stop>
    </radialGradient>
    <radialGradient id="paint27_radial_3_1253" cx="0" cy="0" r="1" gradientTransform="rotate(-87.401 15.266 -6.29)scale(2.51513 4.45631)" gradientUnits="userSpaceOnUse">
      <stop stop-color="#4F4D4D"></stop>
      <stop offset="1" stop-color="#4F4D4D" stop-opacity="0"></stop>
    </radialGradient>
    <radialGradient id="paint28_radial_3_1253" cx="0" cy="0" r="1" gradientTransform="matrix(-2.35883 -1.5514 1.1388 -1.7315 20.102 2.97)" gradientUnits="userSpaceOnUse">
      <stop stop-color="#5E5A5B"></stop>
      <stop offset="1" stop-color="#5E5A5B" stop-opacity="0"></stop>
    </radialGradient>
    <radialGradient id="paint29_radial_3_1253" cx="0" cy="0" r="1" gradientTransform="matrix(.90512 1.475 -3.41539 2.09582 15.09 1.376)" gradientUnits="userSpaceOnUse">
      <stop offset=".287" stop-color="#484646"></stop>
      <stop offset="1" stop-color="#484646" stop-opacity="0"></stop>
    </radialGradient>
    <radialGradient id="paint30_radial_3_1253" cx="0" cy="0" r="1" gradientTransform="matrix(-2.20112 0 0 -.81692 16.249 3.636)" gradientUnits="userSpaceOnUse">
      <stop stop-color="#423C3F"></stop>
      <stop offset="1" stop-color="#423C3F" stop-opacity="0"></stop>
    </radialGradient>
    <radialGradient id="paint31_radial_3_1253" cx="0" cy="0" r="1" gradientTransform="matrix(3.21816 -5.09543 5.64521 3.5654 10.565 7.579)" gradientUnits="userSpaceOnUse">
      <stop offset=".093" stop-color="#0B0306"></stop>
      <stop offset=".311" stop-color="#1C0C20"></stop>
      <stop offset="1" stop-color="#1C0C20" stop-opacity="0"></stop>
    </radialGradient>
    <radialGradient id="paint32_radial_3_1253" cx="0" cy="0" r="1" gradientTransform="matrix(3.05838 0 0 1.19577 19.41 4.413)" gradientUnits="userSpaceOnUse">
      <stop stop-color="#4E494B"></stop>
      <stop offset="1" stop-color="#4E494B" stop-opacity="0"></stop>
    </radialGradient>
    <radialGradient id="paint33_radial_3_1253" cx="0" cy="0" r="1" gradientTransform="matrix(2.67872 -2.55217 4.67237 4.90405 18.63 7.45)" gradientUnits="userSpaceOnUse">
      <stop offset=".857" stop-color="#545051" stop-opacity="0"></stop>
      <stop offset="1" stop-color="#545051"></stop>
    </radialGradient>
    <radialGradient id="paint34_radial_3_1253" cx="0" cy="0" r="1" gradientTransform="matrix(3.2482 .37966 -.15896 1.35996 17.743 5.974)" gradientUnits="userSpaceOnUse">
      <stop stop-color="#200E25"></stop>
      <stop offset="1" stop-color="#200E25" stop-opacity="0"></stop>
    </radialGradient>
    <radialGradient id="paint35_radial_3_1253" cx="0" cy="0" r="1" gradientTransform="matrix(0 .81132 -1.29049 0 18.177 9.911)" gradientUnits="userSpaceOnUse">
      <stop offset=".802" stop-color="#7D574A"></stop>
      <stop offset="1" stop-color="#694B43"></stop>
      <stop offset="1" stop-color="#804D49"></stop>
      <stop offset="1" stop-color="#664842"></stop>
    </radialGradient>
    <radialGradient id="paint36_radial_3_1253" cx="0" cy="0" r="1" gradientTransform="rotate(-127.812 11.422 .602)scale(.37829 .52081)" gradientUnits="userSpaceOnUse">
      <stop offset=".766" stop-color="#FFE6E2" stop-opacity="0"></stop>
      <stop offset=".966" stop-color="#FFE6E2"></stop>
    </radialGradient>
    <radialGradient id="paint38_radial_3_1253" cx="0" cy="0" r="1" gradientTransform="matrix(0 .81136 -1.29056 0 13.813 9.911)" gradientUnits="userSpaceOnUse">
      <stop offset=".802" stop-color="#7D574A"></stop>
      <stop offset="1" stop-color="#694B43"></stop>
      <stop offset="1" stop-color="#804D49"></stop>
      <stop offset="1" stop-color="#664842"></stop>
    </radialGradient>
    <radialGradient id="paint40_radial_3_1253" cx="0" cy="0" r="1" gradientTransform="matrix(-.00774 -.49408 .59392 -.0093 13.527 10.13)" gradientUnits="userSpaceOnUse">
      <stop offset=".766" stop-color="#FFE6E2" stop-opacity="0"></stop>
      <stop offset=".966" stop-color="#FFE6E2"></stop>
    </radialGradient>
    <radialGradient id="paint42_radial_3_1253" cx="0" cy="0" r="1" gradientTransform="matrix(.62855 2.24327 -2.14025 .59968 20.613 9.925)" gradientUnits="userSpaceOnUse">
      <stop offset=".856" stop-color="#CE978E" stop-opacity="0"></stop>
      <stop offset="1" stop-color="#CE978E"></stop>
    </radialGradient>
    <radialGradient id="paint43_radial_3_1253" cx="0" cy="0" r="1" gradientTransform="matrix(.78778 -1.0811 .90618 .66032 20.974 10.47)" gradientUnits="userSpaceOnUse">
      <stop offset=".664" stop-color="#F7B99C"></stop>
      <stop offset="1" stop-color="#F7B99C" stop-opacity="0"></stop>
    </radialGradient>
    <radialGradient id="paint44_radial_3_1253" cx="0" cy="0" r="1" gradientTransform="matrix(.587 -1.55042 2.07158 .7843 21.088 10.643)" gradientUnits="userSpaceOnUse">
      <stop offset=".803" stop-color="#EBBB9D" stop-opacity="0"></stop>
      <stop offset="1" stop-color="#EBBB9D"></stop>
    </radialGradient>
    <radialGradient id="paint46_radial_3_1253" cx="0" cy="0" r="1" gradientTransform="rotate(-173.034 5.862 4.947)scale(1.62516 1.74453)" gradientUnits="userSpaceOnUse">
      <stop offset=".775" stop-color="#E8AF99" stop-opacity="0"></stop>
      <stop offset="1" stop-color="#E8AF99"></stop>
    </radialGradient>
    <radialGradient id="paint47_radial_3_1253" cx="0" cy="0" r="1" gradientTransform="matrix(-.91648 .15731 -.19303 -1.12456 11.08 10.568)" gradientUnits="userSpaceOnUse">
      <stop stop-color="#C18472"></stop>
      <stop offset="1" stop-color="#CA8B7A"></stop>
    </radialGradient>
    <radialGradient id="paint50_radial_3_1253" cx="0" cy="0" r="1" gradientTransform="matrix(0 -7.59705 13.2772 0 17.243 31.067)" gradientUnits="userSpaceOnUse">
      <stop offset=".027" stop-color="#78698C"></stop>
      <stop offset="1" stop-color="#7A6B8E" stop-opacity="0"></stop>
    </radialGradient>
    <radialGradient id="paint54_radial_3_1253" cx="0" cy="0" r="1" gradientTransform="matrix(-.78125 .4375 -.4057 -.72446 26.696 16.66)" gradientUnits="userSpaceOnUse">
      <stop stop-color="#E5DFF1"></stop>
      <stop offset=".724" stop-color="#E5DFF1" stop-opacity="0"></stop>
    </radialGradient>
    <radialGradient id="paint60_radial_3_1253" cx="0" cy="0" r="1" gradientTransform="matrix(-.0957 .08008 -.11939 -.14269 17.371 21.824)" gradientUnits="userSpaceOnUse">
      <stop stop-color="#806B97"></stop>
      <stop offset="1" stop-color="#8D78A4" stop-opacity="0"></stop>
    </radialGradient>
    <linearGradient id="paint4_linear_3_1253" x1="26.607" x2="27.302" y1="28.838" y2="28.838" gradientUnits="userSpaceOnUse">
      <stop stop-color="#F5C7AD"></stop>
      <stop offset="1" stop-color="#B38F78" stop-opacity="0"></stop>
      <stop offset="1" stop-color="#F5C7AD" stop-opacity="0"></stop>
    </linearGradient>
    <linearGradient id="paint5_linear_3_1253" x1="16" x2="16" y1="6.703" y2="34.611" gradientUnits="userSpaceOnUse">
      <stop stop-color="#636363"></stop>
      <stop offset="1" stop-color="#1C1C1C"></stop>
    </linearGradient>
    <linearGradient id="paint6_linear_3_1253" x1="10.918" x2="1.428" y1="24.003" y2="24.044" gradientUnits="userSpaceOnUse">
      <stop stop-color="#1C1C1C"></stop>
      <stop offset="1" stop-color="#636363"></stop>
    </linearGradient>
    <linearGradient id="paint7_linear_3_1253" x1="22.998" x2="28.652" y1="24.02" y2="24.02" gradientUnits="userSpaceOnUse">
      <stop stop-color="#1C1C1C"></stop>
      <stop offset="1" stop-color="#636363"></stop>
    </linearGradient>
    <linearGradient id="paint11_linear_3_1253" x1="21.153" x2="16.8" y1="12.513" y2="12.513" gradientUnits="userSpaceOnUse">
      <stop stop-color="#FFD6BA"></stop>
      <stop offset="1" stop-color="#FFD6BA" stop-opacity="0"></stop>
    </linearGradient>
    <linearGradient id="paint18_linear_3_1253" x1="16.834" x2="15.995" y1="11.502" y2="11.537" gradientUnits="userSpaceOnUse">
      <stop offset=".36" stop-color="#FFDFC7"></stop>
      <stop offset="1" stop-color="#FFDFC7" stop-opacity="0"></stop>
    </linearGradient>
    <linearGradient id="paint20_linear_3_1253" x1="15.995" x2="15.995" y1="12.642" y2="12.177" gradientUnits="userSpaceOnUse">
      <stop stop-color="#D89793"></stop>
      <stop offset="1" stop-color="#D89793" stop-opacity="0"></stop>
    </linearGradient>
    <linearGradient id="paint22_linear_3_1253" x1="15.995" x2="15.995" y1="9.808" y2="10.483" gradientUnits="userSpaceOnUse">
      <stop stop-color="#E8BBA8"></stop>
      <stop offset="1" stop-color="#E8BBA8" stop-opacity="0"></stop>
    </linearGradient>
    <linearGradient id="paint23_linear_3_1253" x1="14.794" x2="15.112" y1="14.213" y2="13.378" gradientUnits="userSpaceOnUse">
      <stop stop-color="#E1ACA6"></stop>
      <stop offset="1" stop-color="#E1ACA6" stop-opacity="0"></stop>
    </linearGradient>
    <linearGradient id="paint25_linear_3_1253" x1="22.847" x2="11.235" y1="5.165" y2="5.165" gradientUnits="userSpaceOnUse">
      <stop stop-color="#443D40"></stop>
      <stop offset="1" stop-color="#272127"></stop>
    </linearGradient>
    <linearGradient id="paint37_linear_3_1253" x1="18.956" x2="18.642" y1="9.965" y2="10.159" gradientUnits="userSpaceOnUse">
      <stop stop-color="#B4948D"></stop>
      <stop offset="1" stop-color="#B4948D" stop-opacity="0"></stop>
    </linearGradient>
    <linearGradient id="paint39_linear_3_1253" x1="14.557" x2="14.243" y1="9.965" y2="10.159" gradientUnits="userSpaceOnUse">
      <stop stop-color="#B4948D"></stop>
      <stop offset="1" stop-color="#B4948D" stop-opacity="0"></stop>
    </linearGradient>
    <linearGradient id="paint41_linear_3_1253" x1="22.432" x2="21.225" y1="9.992" y2="12.169" gradientUnits="userSpaceOnUse">
      <stop stop-color="#FFD6BD"></stop>
      <stop offset="1" stop-color="#F0B8A6"></stop>
    </linearGradient>
    <linearGradient id="paint45_linear_3_1253" x1="10.146" x2="11.604" y1="10.696" y2="10.569" gradientUnits="userSpaceOnUse">
      <stop stop-color="#D19787"></stop>
      <stop offset="1" stop-color="#C9887D"></stop>
    </linearGradient>
    <linearGradient id="paint48_linear_3_1253" x1="21.474" x2="21.474" y1="9.621" y2="11.525" gradientUnits="userSpaceOnUse">
      <stop stop-color="#F9BB9E"></stop>
      <stop offset="1" stop-color="#F6BBA0"></stop>
    </linearGradient>
    <linearGradient id="paint49_linear_3_1253" x1="7.493" x2="11.284" y1="19.754" y2="30.805" gradientUnits="userSpaceOnUse">
      <stop stop-color="#AB9CBE"></stop>
      <stop offset="1" stop-color="#847498"></stop>
    </linearGradient>
    <linearGradient id="paint51_linear_3_1253" x1="16" x2="16" y1="16.02" y2="17.379" gradientUnits="userSpaceOnUse">
      <stop stop-color="#BEB0B0"></stop>
      <stop offset=".268" stop-color="#BEB7C7"></stop>
      <stop offset=".863" stop-color="#BEB7C7" stop-opacity="0"></stop>
    </linearGradient>
    <linearGradient id="paint52_linear_3_1253" x1="5" x2="6.055" y1="24.254" y2="24.254" gradientUnits="userSpaceOnUse">
      <stop stop-color="#9F93B2"></stop>
      <stop offset="1" stop-color="#9F93B2" stop-opacity="0"></stop>
    </linearGradient>
    <linearGradient id="paint53_linear_3_1253" x1="27" x2="25.524" y1="25.192" y2="25.192" gradientUnits="userSpaceOnUse">
      <stop offset=".174" stop-color="#BAB9C0"></stop>
      <stop offset="1" stop-color="#A191B5" stop-opacity="0"></stop>
    </linearGradient>
    <linearGradient id="paint55_linear_3_1253" x1="17.977" x2="13.911" y1="23.099" y2="23.099" gradientUnits="userSpaceOnUse">
      <stop offset=".096" stop-color="#56416B"></stop>
      <stop offset=".13" stop-color="#614C77"></stop>
      <stop offset=".165" stop-color="#51366C"></stop>
      <stop offset="1" stop-color="#4F3568"></stop>
    </linearGradient>
    <linearGradient id="paint56_linear_3_1253" x1="15.999" x2="15.999" y1="21.641" y2="23.196" gradientUnits="userSpaceOnUse">
      <stop stop-color="#60407F"></stop>
      <stop offset="1" stop-color="#543870" stop-opacity="0"></stop>
    </linearGradient>
    <linearGradient id="paint57_linear_3_1253" x1="15.999" x2="15.999" y1="21.641" y2="24.557" gradientUnits="userSpaceOnUse">
      <stop stop-color="#594170"></stop>
      <stop offset=".037" stop-color="#6D5686"></stop>
      <stop offset=".058" stop-color="#6F5783"></stop>
      <stop offset=".097" stop-color="#5F447B" stop-opacity="0"></stop>
    </linearGradient>
    <linearGradient id="paint58_linear_3_1253" x1="14.444" x2="15.02" y1="23.122" y2="23.122" gradientUnits="userSpaceOnUse">
      <stop offset=".086" stop-color="#3B2B50"></stop>
      <stop offset=".663" stop-color="#52376C" stop-opacity="0"></stop>
    </linearGradient>
    <linearGradient id="paint59_linear_3_1253" x1="15.999" x2="15.999" y1="24.842" y2="24.168" gradientUnits="userSpaceOnUse">
      <stop offset=".507" stop-color="#3D2555"></stop>
      <stop offset=".736" stop-color="#4A3261" stop-opacity="0"></stop>
    </linearGradient>
    <filter id="filter0_ii_3_1253" width="11.22" height="12.542" x="10.932" y="4.657" color-interpolation-filters="sRGB" filterUnits="userSpaceOnUse">
      <feFlood flood-opacity="0" result="BackgroundImageFix"></feFlood>
      <feBlend in="SourceGraphic" in2="BackgroundImageFix" result="shape"></feBlend>
      <feColorMatrix in="SourceAlpha" result="hardAlpha" values="0 0 0 0 0 0 0 0 0 0 0 0 0 0 0 0 0 0 127 0"></feColorMatrix>
      <feOffset dx="1"></feOffset>
      <feGaussianBlur stdDeviation=".7"></feGaussianBlur>
      <feComposite in2="hardAlpha" k2="-1" k3="1" operator="arithmetic"></feComposite>
      <feColorMatrix values="0 0 0 0 0.913725 0 0 0 0 0.686275 0 0 0 0 0.592157 0 0 0 1 0"></feColorMatrix>
      <feBlend in2="shape" result="effect1_innerShadow_3_1253"></feBlend>
      <feColorMatrix in="SourceAlpha" result="hardAlpha" values="0 0 0 0 0 0 0 0 0 0 0 0 0 0 0 0 0 0 127 0"></feColorMatrix>
      <feOffset dy=".2"></feOffset>
      <feGaussianBlur stdDeviation=".375"></feGaussianBlur>
      <feComposite in2="hardAlpha" k2="-1" k3="1" operator="arithmetic"></feComposite>
      <feColorMatrix values="0 0 0 0 0.780392 0 0 0 0 0.568627 0 0 0 0 0.486275 0 0 0 1 0"></feColorMatrix>
      <feBlend in2="effect1_innerShadow_3_1253" result="effect2_innerShadow_3_1253"></feBlend>
    </filter>
    <filter id="filter1_f_3_1253" width="3.747" height="4.9" x="13.98" y="8.998" color-interpolation-filters="sRGB" filterUnits="userSpaceOnUse">
      <feFlood flood-opacity="0" result="BackgroundImageFix"></feFlood>
      <feBlend in="SourceGraphic" in2="BackgroundImageFix" result="shape"></feBlend>
      <feGaussianBlur result="effect1_foregroundBlur_3_1253" stdDeviation=".5"></feGaussianBlur>
    </filter>
    <filter id="filter2_f_3_1253" width="2.277" height="3.3" x="14.857" y="9.608" color-interpolation-filters="sRGB" filterUnits="userSpaceOnUse">
      <feFlood flood-opacity="0" result="BackgroundImageFix"></feFlood>
      <feBlend in="SourceGraphic" in2="BackgroundImageFix" result="shape"></feBlend>
      <feGaussianBlur result="effect1_foregroundBlur_3_1253" stdDeviation=".1"></feGaussianBlur>
    </filter>
    <filter id="filter3_f_3_1253" width="3.718" height="1.573" x="14.136" y="13.128" color-interpolation-filters="sRGB" filterUnits="userSpaceOnUse">
      <feFlood flood-opacity="0" result="BackgroundImageFix"></feFlood>
      <feBlend in="SourceGraphic" in2="BackgroundImageFix" result="shape"></feBlend>
      <feGaussianBlur result="effect1_foregroundBlur_3_1253" stdDeviation=".05"></feGaussianBlur>
    </filter>
    <filter id="filter4_ii_3_1253" width="12.873" height="8.356" x="9.559" y="1.48" color-interpolation-filters="sRGB" filterUnits="userSpaceOnUse">
      <feFlood flood-opacity="0" result="BackgroundImageFix"></feFlood>
      <feBlend in="SourceGraphic" in2="BackgroundImageFix" result="shape"></feBlend>
      <feColorMatrix in="SourceAlpha" result="hardAlpha" values="0 0 0 0 0 0 0 0 0 0 0 0 0 0 0 0 0 0 127 0"></feColorMatrix>
      <feOffset dy="-.5"></feOffset>
      <feGaussianBlur stdDeviation=".625"></feGaussianBlur>
      <feComposite in2="hardAlpha" k2="-1" k3="1" operator="arithmetic"></feComposite>
      <feColorMatrix values="0 0 0 0 0.137255 0 0 0 0 0.0901961 0 0 0 0 0.145098 0 0 0 1 0"></feColorMatrix>
      <feBlend in2="shape" result="effect1_innerShadow_3_1253"></feBlend>
      <feColorMatrix in="SourceAlpha" result="hardAlpha" values="0 0 0 0 0 0 0 0 0 0 0 0 0 0 0 0 0 0 127 0"></feColorMatrix>
      <feOffset dy="-.2"></feOffset>
      <feGaussianBlur stdDeviation=".2"></feGaussianBlur>
      <feComposite in2="hardAlpha" k2="-1" k3="1" operator="arithmetic"></feComposite>
      <feColorMatrix values="0 0 0 0 0.0784314 0 0 0 0 0.0352941 0 0 0 0 0.0470588 0 0 0 1 0"></feColorMatrix>
      <feBlend in2="effect1_innerShadow_3_1253" result="effect2_innerShadow_3_1253"></feBlend>
    </filter>
    <filter id="filter5_i_3_1253" width="2.339" height="1.19" x="17.584" y="7.144" color-interpolation-filters="sRGB" filterUnits="userSpaceOnUse">
      <feFlood flood-opacity="0" result="BackgroundImageFix"></feFlood>
      <feBlend in="SourceGraphic" in2="BackgroundImageFix" result="shape"></feBlend>
      <feColorMatrix in="SourceAlpha" result="hardAlpha" values="0 0 0 0 0 0 0 0 0 0 0 0 0 0 0 0 0 0 127 0"></feColorMatrix>
      <feOffset dx=".1" dy="-.2"></feOffset>
      <feGaussianBlur stdDeviation=".125"></feGaussianBlur>
      <feComposite in2="hardAlpha" k2="-1" k3="1" operator="arithmetic"></feComposite>
      <feColorMatrix values="0 0 0 0 0.0588235 0 0 0 0 0.054902 0 0 0 0 0.0588235 0 0 0 1 0"></feColorMatrix>
      <feBlend in2="shape" result="effect1_innerShadow_3_1253"></feBlend>
    </filter>
    <filter id="filter6_i_3_1253" width="2.339" height="1.176" x="12.328" y="7.159" color-interpolation-filters="sRGB" filterUnits="userSpaceOnUse">
      <feFlood flood-opacity="0" result="BackgroundImageFix"></feFlood>
      <feBlend in="SourceGraphic" in2="BackgroundImageFix" result="shape"></feBlend>
      <feColorMatrix in="SourceAlpha" result="hardAlpha" values="0 0 0 0 0 0 0 0 0 0 0 0 0 0 0 0 0 0 127 0"></feColorMatrix>
      <feOffset dx=".1" dy="-.2"></feOffset>
      <feGaussianBlur stdDeviation=".125"></feGaussianBlur>
      <feComposite in2="hardAlpha" k2="-1" k3="1" operator="arithmetic"></feComposite>
      <feColorMatrix values="0 0 0 0 0.0588235 0 0 0 0 0.054902 0 0 0 0 0.0588235 0 0 0 1 0"></feColorMatrix>
      <feBlend in2="shape" result="effect1_innerShadow_3_1253"></feBlend>
    </filter>
    <filter id="filter7_if_3_1253" width="6.734" height="5.992" x="9.915" y="2.569" color-interpolation-filters="sRGB" filterUnits="userSpaceOnUse">
      <feFlood flood-opacity="0" result="BackgroundImageFix"></feFlood>
      <feBlend in="SourceGraphic" in2="BackgroundImageFix" result="shape"></feBlend>
      <feColorMatrix in="SourceAlpha" result="hardAlpha" values="0 0 0 0 0 0 0 0 0 0 0 0 0 0 0 0 0 0 127 0"></feColorMatrix>
      <feOffset dx=".4" dy=".2"></feOffset>
      <feGaussianBlur stdDeviation=".2"></feGaussianBlur>
      <feComposite in2="hardAlpha" k2="-1" k3="1" operator="arithmetic"></feComposite>
      <feColorMatrix values="0 0 0 0 0.286275 0 0 0 0 0.243137 0 0 0 0 0.227451 0 0 0 1 0"></feColorMatrix>
      <feBlend in2="shape" result="effect1_innerShadow_3_1253"></feBlend>
      <feGaussianBlur result="effect2_foregroundBlur_3_1253" stdDeviation=".125"></feGaussianBlur>
    </filter>
    <filter id="filter8_f_3_1253" width="6.361" height="5.736" x="15.836" y="2.993" color-interpolation-filters="sRGB" filterUnits="userSpaceOnUse">
      <feFlood flood-opacity="0" result="BackgroundImageFix"></feFlood>
      <feBlend in="SourceGraphic" in2="BackgroundImageFix" result="shape"></feBlend>
      <feGaussianBlur result="effect1_foregroundBlur_3_1253" stdDeviation=".125"></feGaussianBlur>
    </filter>
    <filter id="filter9_f_3_1253" width=".787" height=".696" x="17.443" y="9.472" color-interpolation-filters="sRGB" filterUnits="userSpaceOnUse">
      <feFlood flood-opacity="0" result="BackgroundImageFix"></feFlood>
      <feBlend in="SourceGraphic" in2="BackgroundImageFix" result="shape"></feBlend>
      <feGaussianBlur result="effect1_foregroundBlur_3_1253" stdDeviation=".05"></feGaussianBlur>
    </filter>
    <filter id="filter10_f_3_1253" width=".891" height=".913" x="18.283" y="9.547" color-interpolation-filters="sRGB" filterUnits="userSpaceOnUse">
      <feFlood flood-opacity="0" result="BackgroundImageFix"></feFlood>
      <feBlend in="SourceGraphic" in2="BackgroundImageFix" result="shape"></feBlend>
      <feGaussianBlur result="effect1_foregroundBlur_3_1253" stdDeviation=".1"></feGaussianBlur>
    </filter>
    <filter id="filter11_f_3_1253" width=".986" height="1.04" x="13.841" y="9.483" color-interpolation-filters="sRGB" filterUnits="userSpaceOnUse">
      <feFlood flood-opacity="0" result="BackgroundImageFix"></feFlood>
      <feBlend in="SourceGraphic" in2="BackgroundImageFix" result="shape"></feBlend>
      <feGaussianBlur result="effect1_foregroundBlur_3_1253" stdDeviation=".1"></feGaussianBlur>
    </filter>
    <filter id="filter12_f_3_1253" width=".913" height=".705" x="13.086" y="9.463" color-interpolation-filters="sRGB" filterUnits="userSpaceOnUse">
      <feFlood flood-opacity="0" result="BackgroundImageFix"></feFlood>
      <feBlend in="SourceGraphic" in2="BackgroundImageFix" result="shape"></feBlend>
      <feGaussianBlur result="effect1_foregroundBlur_3_1253" stdDeviation=".05"></feGaussianBlur>
    </filter>
    <filter id="filter13_f_3_1253" width="1.329" height="2.379" x="9.915" y="9.379" color-interpolation-filters="sRGB" filterUnits="userSpaceOnUse">
      <feFlood flood-opacity="0" result="BackgroundImageFix"></feFlood>
      <feBlend in="SourceGraphic" in2="BackgroundImageFix" result="shape"></feBlend>
      <feGaussianBlur result="effect1_foregroundBlur_3_1253" stdDeviation=".125"></feGaussianBlur>
    </filter>
    <filter id="filter14_f_3_1253" width="1.947" height="2.903" x="20.501" y="9.121" color-interpolation-filters="sRGB" filterUnits="userSpaceOnUse">
      <feFlood flood-opacity="0" result="BackgroundImageFix"></feFlood>
      <feBlend in="SourceGraphic" in2="BackgroundImageFix" result="shape"></feBlend>
      <feGaussianBlur result="effect1_foregroundBlur_3_1253" stdDeviation=".25"></feGaussianBlur>
    </filter>
    <filter id="filter15_f_3_1253" width="2.405" height="1.16" x="12.247" y="7.233" color-interpolation-filters="sRGB" filterUnits="userSpaceOnUse">
      <feFlood flood-opacity="0" result="BackgroundImageFix"></feFlood>
      <feBlend in="SourceGraphic" in2="BackgroundImageFix" result="shape"></feBlend>
      <feGaussianBlur result="effect1_foregroundBlur_3_1253" stdDeviation=".125"></feGaussianBlur>
    </filter>
    <filter id="filter16_f_3_1253" width="2.405" height="1.16" x="17.526" y="7.187" color-interpolation-filters="sRGB" filterUnits="userSpaceOnUse">
      <feFlood flood-opacity="0" result="BackgroundImageFix"></feFlood>
      <feBlend in="SourceGraphic" in2="BackgroundImageFix" result="shape"></feBlend>
      <feGaussianBlur result="effect1_foregroundBlur_3_1253" stdDeviation=".125"></feGaussianBlur>
    </filter>
    <filter id="filter17_i_3_1253" width="22" height="14.1" x="5" y="16.02" color-interpolation-filters="sRGB" filterUnits="userSpaceOnUse">
      <feFlood flood-opacity="0" result="BackgroundImageFix"></feFlood>
      <feBlend in="SourceGraphic" in2="BackgroundImageFix" result="shape"></feBlend>
      <feColorMatrix in="SourceAlpha" result="hardAlpha" values="0 0 0 0 0 0 0 0 0 0 0 0 0 0 0 0 0 0 127 0"></feColorMatrix>
      <feOffset dy=".1"></feOffset>
      <feGaussianBlur stdDeviation=".25"></feGaussianBlur>
      <feComposite in2="hardAlpha" k2="-1" k3="1" operator="arithmetic"></feComposite>
      <feColorMatrix values="0 0 0 0 0.678431 0 0 0 0 0.670588 0 0 0 0 0.682353 0 0 0 1 0"></feColorMatrix>
      <feBlend in2="shape" result="effect1_innerShadow_3_1253"></feBlend>
    </filter>
  </defs>
</svg>
